<?xml version="1.0" encoding="UTF-8" standalone="no"?>
<!-- Created with Inkscape (http://www.inkscape.org/) -->

<svg
   xmlns:dc="http://purl.org/dc/elements/1.1/"
   xmlns:cc="http://creativecommons.org/ns#"
   xmlns:rdf="http://www.w3.org/1999/02/22-rdf-syntax-ns#"
   xmlns:svg="http://www.w3.org/2000/svg"
   xmlns="http://www.w3.org/2000/svg"
   xmlns:sodipodi="http://sodipodi.sourceforge.net/DTD/sodipodi-0.dtd"
   xmlns:inkscape="http://www.inkscape.org/namespaces/inkscape"
   width="32px"
   height="32px"
   viewBox="0 0 32 32"
   version="1.1"
   id="SVGRoot"
   sodipodi:docname="pi2.svg"
   inkscape:version="0.92.1 r15371"
   inkscape:export-filename="/home/benjamin/pi2large.png"
   inkscape:export-xdpi="96"
   inkscape:export-ydpi="96">
  <sodipodi:namedview
     id="base"
     pagecolor="#ffffff"
     bordercolor="#666666"
     borderopacity="1.0"
     inkscape:pageopacity="0.0"
     inkscape:pageshadow="2"
     inkscape:zoom="8"
     inkscape:cx="16.328125"
     inkscape:cy="12.84375"
     inkscape:document-units="px"
     inkscape:current-layer="layer1"
     showgrid="false"
     inkscape:grid-bbox="true">
    <inkscape:grid
       type="xygrid"
       id="grid6219"
       empspacing="2" />
  </sodipodi:namedview>
  <defs
     id="defs5660" />
  <metadata
     id="metadata5663">
    <rdf:RDF>
      <cc:Work
         rdf:about="">
        <dc:format>image/svg+xml</dc:format>
        <dc:type
           rdf:resource="http://purl.org/dc/dcmitype/StillImage" />
        <dc:title></dc:title>
      </cc:Work>
    </rdf:RDF>
  </metadata>
  <g
     id="layer1"
     inkscape:groupmode="layer"
     inkscape:label="Layer 1"
     style="display:inline">
    <path
       style="fill:#454545;fill-opacity:1;stroke:none;stroke-width:1"
       d="M 11.2,7.9333332 C 9.5805032,7.9383032 8.1757815,9.814974 8.0000003,11.133333 v 3.2 H 9.0666662 C 9.0666662,13.266666 10.183334,12 11.25,12 h 1.841529 c -0.627514,4.766203 -1.262587,7.790542 -2.279507,9.535348 C 9.9249382,23.057385 8.8496092,23.912107 8,24 v 1 c 2.408762,-0.1875 4.621283,-1.745551 5.64498,-3.60613 C 14.470492,19.893494 15.223085,17.434124 15.979473,12 h 2.489277 c -0.954586,4.424556 -1.415866,6.34936 -1.051903,9.109469 0.261433,1.98258 1.520087,3.183661 2.807626,3.713754 1.342438,0.552695 3.15131,0.614183 4.289518,-0.286977 C 25.869669,22.963984 26,21.831413 26,20 h -1 c -0.125,1.128892 -0.544808,2.302819 -1.485719,2.302819 -1.232806,0 -1.693535,-1.051039 -1.808405,-2.394915 C 21.575894,18.387217 21.674697,17.399093 22.625,12 H 26 V 8 Z"
       id="path3011-2"
       inkscape:connector-curvature="0"
       sodipodi:nodetypes="ccccccsccsccsscccsscccc" />
  </g>
</svg>
