<svg version="1.1" viewBox="0.0 0.0 960.0 720.0" fill="none" stroke="none" stroke-linecap="square" stroke-miterlimit="10" xmlns:xlink="http://www.w3.org/1999/xlink" xmlns="http://www.w3.org/2000/svg"><clipPath id="p.0"><path d="m0 0l960.0 0l0 720.0l-960.0 0l0 -720.0z" clip-rule="nonzero"/></clipPath><g clip-path="url(#p.0)"><path fill="#000000" fill-opacity="0.0" d="m0 0l960.0 0l0 720.0l-960.0 0z" fill-rule="evenodd"/><path fill="#3d85c6" d="m97.817245 89.71906c8.198906 -10.485672 35.10074 -10.7041855 58.41533 -11.79615c23.314575 -1.0919724 66.355804 -2.838272 81.4722 5.2443466c15.116394 8.082611 0.2584076 -3.278923 9.226166 43.25135c8.967743 46.530273 48.680145 192.2395 44.580322 235.9303c-4.0997925 43.690796 -47.14456 22.718872 -69.17915 26.214478c-22.034592 3.495636 -43.812912 36.047028 -63.028397 -5.2407227c-19.2155 -41.28775 -42.016815 -193.55179 -52.264557 -242.48573c-10.247742 -48.93393 -17.420807 -40.632195 -9.221909 -51.117867z" fill-rule="evenodd"/><path stroke="#000000" stroke-width="1.0" stroke-linejoin="round" stroke-linecap="butt" d="m97.817245 89.71906c8.198906 -10.485672 35.10074 -10.7041855 58.41533 -11.79615c23.314575 -1.0919724 66.355804 -2.838272 81.4722 5.2443466c15.116394 8.082611 0.2584076 -3.278923 9.226166 43.25135c8.967743 46.530273 48.680145 192.2395 44.580322 235.9303c-4.0997925 43.690796 -47.14456 22.718872 -69.17915 26.214478c-22.034592 3.495636 -43.812912 36.047028 -63.028397 -5.2407227c-19.2155 -41.28775 -42.016815 -193.55179 -52.264557 -242.48573c-10.247742 -48.93393 -17.420807 -40.632195 -9.221909 -51.117867z" fill-rule="evenodd"/><path fill="#cc0000" d="m600.50165 161.26132c11.529114 -14.854752 -19.47461 -56.359795 -39.971558 -74.710175c-20.496887 -18.350372 -67.125336 -25.342834 -83.00989 -35.39208c-15.8845215 -10.049248 -5.8916626 -20.752829 -12.297272 -24.903393c-6.4056396 -4.150566 -21.52417 -2.6215687 -26.136536 0c-4.6123657 2.6215687 1.5369873 13.1078415 -1.5376892 15.729412c-3.0746765 2.6215668 -13.067566 2.8400803 -16.91037 0c-3.842804 -2.840084 -0.76672363 -14.41893 -6.146515 -17.040499c-5.379822 -2.6215687 -22.545044 -2.1845398 -26.132294 1.3110867c-3.5872192 3.4956264 6.659088 16.167042 4.6088257 19.66267c-2.050232 3.4956245 -13.323822 3.9326553 -16.91034 1.3110847c-3.5865479 -2.6215668 -0.7660217 -14.41893 -4.608856 -17.040497c-3.842804 -2.6215687 -15.629669 -2.620966 -18.44806 1.3110867c-2.81839 3.9320507 7.943329 16.820173 1.5376892 22.281218c-6.405609 5.461048 -25.879517 5.4604454 -39.971497 10.485065c-14.09198 5.0246277 -31.513489 4.152382 -44.580322 19.662674c-13.066864 15.510292 -51.75554 61.820854 -33.820755 73.399086c17.9348 11.578247 114.52693 0.43945312 141.42949 -3.9296265c26.902527 -4.3690796 12.811981 -19.007736 19.985748 -22.284851c7.173767 -3.2771072 9.990051 1.3110809 23.056885 2.6221771c13.0668335 1.3110809 43.558044 -1.7463074 55.344177 5.244339c11.786133 6.9906464 -5.380493 32.986008 15.372681 36.699554c20.753204 3.7135315 97.61728 0.43641663 109.146454 -14.418335z" fill-rule="evenodd"/><path stroke="#000000" stroke-width="1.0" stroke-linejoin="round" stroke-linecap="butt" d="m600.50165 161.26132c11.529114 -14.854752 -19.47461 -56.359795 -39.971558 -74.710175c-20.496887 -18.350372 -67.125336 -25.342834 -83.00989 -35.39208c-15.8845215 -10.049248 -5.8916626 -20.752829 -12.297272 -24.903393c-6.4056396 -4.150566 -21.52417 -2.6215687 -26.136536 0c-4.6123657 2.6215687 1.5369873 13.1078415 -1.5376892 15.729412c-3.0746765 2.6215668 -13.067566 2.8400803 -16.91037 0c-3.842804 -2.840084 -0.76672363 -14.41893 -6.146515 -17.040499c-5.379822 -2.6215687 -22.545044 -2.1845398 -26.132294 1.3110867c-3.5872192 3.4956264 6.659088 16.167042 4.6088257 19.66267c-2.050232 3.4956245 -13.323822 3.9326553 -16.91034 1.3110847c-3.5865479 -2.6215668 -0.7660217 -14.41893 -4.608856 -17.040497c-3.842804 -2.6215687 -15.629669 -2.620966 -18.44806 1.3110867c-2.81839 3.9320507 7.943329 16.820173 1.5376892 22.281218c-6.405609 5.461048 -25.879517 5.4604454 -39.971497 10.485065c-14.09198 5.0246277 -31.513489 4.152382 -44.580322 19.662674c-13.066864 15.510292 -51.75554 61.820854 -33.820755 73.399086c17.9348 11.578247 114.52693 0.43945312 141.42949 -3.9296265c26.902527 -4.3690796 12.811981 -19.007736 19.985748 -22.284851c7.173767 -3.2771072 9.990051 1.3110809 23.056885 2.6221771c13.0668335 1.3110809 43.558044 -1.7463074 55.344177 5.244339c11.786133 6.9906464 -5.380493 32.986008 15.372681 36.699554c20.753204 3.7135315 97.61728 0.43641663 109.146454 -14.418335z" fill-rule="evenodd"/><path fill="#3d85c6" d="m152.95953 413.6745c20.552475 -3.7596436 103.96829 -32.28589 128.75153 -2.6542969c24.783203 29.631592 26.899414 145.94727 19.947815 180.44385c-6.9515686 34.49652 -41.407257 22.77649 -61.65741 26.535522c-20.250153 3.7590332 -47.75421 2.8736572 -59.843506 -3.9814453c-12.08931 -6.8550415 -9.065308 -7.0756226 -12.692261 -37.148987c-3.6269531 -30.073364 -6.6517944 -116.09207 -9.069489 -143.29117c-2.4176788 -27.199097 -25.989136 -16.14386 -5.436676 -19.903473z" fill-rule="evenodd"/><path stroke="#000000" stroke-width="1.0" stroke-linejoin="round" stroke-linecap="butt" d="m152.95953 413.6745c20.552475 -3.7596436 103.96829 -32.28589 128.75153 -2.6542969c24.783203 29.631592 26.899414 145.94727 19.947815 180.44385c-6.9515686 34.49652 -41.407257 22.77649 -61.65741 26.535522c-20.250153 3.7590332 -47.75421 2.8736572 -59.843506 -3.9814453c-12.08931 -6.8550415 -9.065308 -7.0756226 -12.692261 -37.148987c-3.6269531 -30.073364 -6.6517944 -116.09207 -9.069489 -143.29117c-2.4176788 -27.199097 -25.989136 -16.14386 -5.436676 -19.903473z" fill-rule="evenodd"/><path fill="#cc0000" d="m541.7519 446.71628l-69.303314 171.86887l48.417328 14.196838l-132.00381 58.824097l-61.665497 -115.61151l48.417328 14.196838l69.30328 -171.8688z" fill-rule="evenodd"/><path stroke="#000000" stroke-width="1.0" stroke-linejoin="round" stroke-linecap="butt" d="m541.7519 446.71628l-69.303314 171.86887l48.417328 14.196838l-132.00381 58.824097l-61.665497 -115.61151l48.417328 14.196838l69.30328 -171.8688z" fill-rule="evenodd"/><path fill="#f9cb9c" d="m123.95075 338.1018c11.529854 -17.694855 24.85299 -59.19928 63.02839 -58.980774c38.175415 0.21850586 151.6765 62.694916 166.02406 60.29184c14.347534 -2.4030457 -60.97885 -50.680237 -79.93878 -74.710175c-18.9599 -24.029922 -28.440216 -50.0271 -33.820724 -69.46945c-5.3805084 -19.442337 -9.735886 -36.043396 1.5376892 -47.1846c11.273575 -11.14122 43.044785 -19.881195 66.103775 -19.662674c23.059021 0.21852112 59.9523 12.672623 72.250305 20.973755c12.298004 8.301132 -2.04953 17.255386 1.5376892 28.833023c3.5872498 11.577652 8.455902 38.666183 19.985779 40.632812c11.529846 1.966629 30.746033 -19.439926 49.19339 -28.833038c18.447357 -9.393097 34.588898 -22.50093 61.490723 -27.525558c26.901825 -5.0246277 69.68747 -8.957275 99.92026 -2.6221771c30.232788 6.3351135 59.442566 23.375 81.47644 40.632812c22.033936 17.257797 23.825073 25.121902 50.726868 62.914032c26.901855 37.792114 89.16211 120.14786 110.68414 163.83865c21.522034 43.690796 23.059692 74.712616 18.44806 98.30609c-4.6116943 23.593567 -18.191101 30.147766 -46.118042 43.255005c-27.92694 13.107239 -61.234436 31.237915 -121.443726 35.388428c-60.20929 4.1505737 -166.79144 1.5302124 -239.81204 -10.485046c-73.02057 -12.015259 -147.58093 -41.727173 -198.31134 -61.606567c-50.730392 -19.879333 -81.218765 -33.20331 -106.071045 -57.669678c-24.85228 -24.46634 -36.893997 -66.40903 -43.04264 -89.12848c-6.1486435 -22.719452 -5.3790894 -29.493408 6.150772 -47.188232z" fill-rule="evenodd"/><path stroke="#000000" stroke-width="1.0" stroke-linejoin="round" stroke-linecap="butt" d="m123.95075 338.1018c11.529854 -17.694855 24.85299 -59.19928 63.02839 -58.980774c38.175415 0.21850586 151.6765 62.694916 166.02406 60.29184c14.347534 -2.4030457 -60.97885 -50.680237 -79.93878 -74.710175c-18.9599 -24.029922 -28.440216 -50.0271 -33.820724 -69.46945c-5.3805084 -19.442337 -9.735886 -36.043396 1.5376892 -47.1846c11.273575 -11.14122 43.044785 -19.881195 66.103775 -19.662674c23.059021 0.21852112 59.9523 12.672623 72.250305 20.973755c12.298004 8.301132 -2.04953 17.255386 1.5376892 28.833023c3.5872498 11.577652 8.455902 38.666183 19.985779 40.632812c11.529846 1.966629 30.746033 -19.439926 49.19339 -28.833038c18.447357 -9.393097 34.588898 -22.50093 61.490723 -27.525558c26.901825 -5.0246277 69.68747 -8.957275 99.92026 -2.6221771c30.232788 6.3351135 59.442566 23.375 81.47644 40.632812c22.033936 17.257797 23.825073 25.121902 50.726868 62.914032c26.901855 37.792114 89.16211 120.14786 110.68414 163.83865c21.522034 43.690796 23.059692 74.712616 18.44806 98.30609c-4.6116943 23.593567 -18.191101 30.147766 -46.118042 43.255005c-27.92694 13.107239 -61.234436 31.237915 -121.443726 35.388428c-60.20929 4.1505737 -166.79144 1.5302124 -239.81204 -10.485046c-73.02057 -12.015259 -147.58093 -41.727173 -198.31134 -61.606567c-50.730392 -19.879333 -81.218765 -33.20331 -106.071045 -57.669678c-24.85228 -24.46634 -36.893997 -66.40903 -43.04264 -89.12848c-6.1486435 -22.719452 -5.3790894 -29.493408 6.150772 -47.188232z" fill-rule="evenodd"/><path fill="#6fa8dc" d="m399.12097 492.77554c2.5621033 -1.9660339 -55.85605 -15.944305 -84.55185 -15.7258c-28.6958 0.21850586 -62.258118 22.935547 -87.62297 17.036865c-25.364838 -5.8986816 -49.44969 -31.676117 -64.566086 -52.428955c-15.116394 -20.752808 -28.181824 -48.495087 -26.132278 -72.08801c2.0495453 -23.592896 18.701508 -59.420197 38.429565 -69.46945c19.728058 -10.049225 56.1109 2.1833496 79.93877 9.173981c23.82785 6.9906616 50.217834 23.37622 63.02841 32.769928c12.810547 9.393707 10.247742 12.669586 13.834961 23.592285c3.5872498 10.922699 -3.328827 24.249084 7.6884766 41.94391c11.017303 17.694824 54.316223 61.603546 58.415314 64.2251c4.0990906 2.621582 -26.646973 -32.329865 -33.82074 -48.495697c-7.173767 -16.165833 -9.990753 -38.01364 -9.221893 -48.49933c0.76882935 -10.485657 -13.066864 -31.017548 13.834961 -14.414703c26.901855 16.602875 91.72208 81.0459 147.57599 114.03192c55.853943 32.985992 173.45557 65.7529 187.54749 83.884125c14.09198 18.131287 -63.283264 22.063354 -102.995605 24.903381c-39.712402 2.840088 -90.44141 -0.6542969 -135.27872 -7.862854c-44.83734 -7.208557 -101.718506 -24.028748 -133.74527 -35.38849c-32.026764 -11.35968 -53.03479 -24.250244 -58.415314 -32.769897c-5.380493 -8.519623 5.1228027 -15.944885 26.132263 -18.347961c21.009491 -2.4030457 97.36243 5.8956604 99.92453 3.929657z" fill-rule="evenodd"/><path stroke="#000000" stroke-width="1.0" stroke-linejoin="round" stroke-linecap="butt" d="m399.12097 492.77554c2.5621033 -1.9660339 -55.85605 -15.944305 -84.55185 -15.7258c-28.6958 0.21850586 -62.258118 22.935547 -87.62297 17.036865c-25.364838 -5.8986816 -49.44969 -31.676117 -64.566086 -52.428955c-15.116394 -20.752808 -28.181824 -48.495087 -26.132278 -72.08801c2.0495453 -23.592896 18.701508 -59.420197 38.429565 -69.46945c19.728058 -10.049225 56.1109 2.1833496 79.93877 9.173981c23.82785 6.9906616 50.217834 23.37622 63.02841 32.769928c12.810547 9.393707 10.247742 12.669586 13.834961 23.592285c3.5872498 10.922699 -3.328827 24.249084 7.6884766 41.94391c11.017303 17.694824 54.316223 61.603546 58.415314 64.2251c4.0990906 2.621582 -26.646973 -32.329865 -33.82074 -48.495697c-7.173767 -16.165833 -9.990753 -38.01364 -9.221893 -48.49933c0.76882935 -10.485657 -13.066864 -31.017548 13.834961 -14.414703c26.901855 16.602875 91.72208 81.0459 147.57599 114.03192c55.853943 32.985992 173.45557 65.7529 187.54749 83.884125c14.09198 18.131287 -63.283264 22.063354 -102.995605 24.903381c-39.712402 2.840088 -90.44141 -0.6542969 -135.27872 -7.862854c-44.83734 -7.208557 -101.718506 -24.028748 -133.74527 -35.38849c-32.026764 -11.35968 -53.03479 -24.250244 -58.415314 -32.769897c-5.380493 -8.519623 5.1228027 -15.944885 26.132263 -18.347961c21.009491 -2.4030457 97.36243 5.8956604 99.92453 3.929657z" fill-rule="evenodd"/><path fill="#cc0000" d="m474.448 315.82022c-2.04953 -0.21792603 9.735901 14.201019 -1.5376892 18.351562c-11.27356 4.1505737 -40.99521 13.979492 -66.10376 6.551819c-25.108582 -7.4276733 -61.744873 -33.64154 -84.54761 -51.11786c-22.802734 -17.476318 -39.714508 -31.457611 -52.2688 -53.74005c-12.554291 -22.282425 -28.181122 -63.57077 -23.056885 -79.95451c5.124222 -16.383759 34.330475 -17.474518 53.802246 -18.347961c19.471771 -0.87345886 52.267365 5.4616394 63.02838 13.107239c10.761017 7.645584 -4.0990906 18.348557 1.5376892 32.76628c5.6368103 14.417725 8.967743 36.04521 32.28305 53.740036c23.315308 17.69484 93.00491 41.50627 107.608734 52.42897c14.603821 10.922699 -20.754608 10.485657 -19.985748 13.107239c0.76882935 2.6215515 17.680634 4.36969 24.598816 2.6221619c6.9181824 -1.7474976 6.661957 -16.165222 16.91037 -13.107239c10.248474 3.0579834 32.79492 21.843597 44.580322 31.4552c11.785461 9.611603 27.669983 30.365051 26.132324 26.214478c-1.5377197 -4.1505737 -22.03534 -39.321716 -35.35846 -51.11786c-13.32312 -11.796173 -26.132996 -11.794952 -44.580322 -19.659058c-18.447357 -7.864105 -49.45041 -18.568878 -66.10379 -27.525558c-16.653381 -8.95668 -39.19699 -15.291779 -33.816498 -26.214478c5.3805237 -10.922699 46.627777 -30.365051 66.09955 -39.321716c19.471771 -8.95668 28.696533 -12.452301 50.73108 -14.418335c22.034607 -1.9660187 57.64862 -4.5869904 81.4765 2.6221771c23.82782 7.2091675 52.52362 25.55954 61.49066 40.632797c8.967041 15.073273 -4.1011963 38.884094 -7.6884155 49.806778c-3.5872803 10.922699 -10.504761 6.335724 -13.835022 15.729431c-3.3302612 9.393707 -6.6590576 29.055145 -6.1464844 40.632782c0.5125122 11.577667 8.197449 30.799683 9.221863 28.833038c1.0244141 -1.9666138 -7.6870117 -27.089142 -3.0753784 -40.632812c4.6116943 -13.54364 12.810547 -46.964874 30.745361 -40.62918c17.934814 6.335724 50.47339 45.001892 76.8634 78.64343c26.389954 33.64157 72.25311 92.622925 81.47644 123.2059c9.223328 30.582947 -11.276428 48.93213 -26.136536 60.29181c-14.860107 11.359741 -24.080566 19.66272 -63.02417 7.866516c-38.943542 -11.796143 -117.60089 -48.9339 -170.63708 -78.6434c-53.036255 -29.709503 -126.82706 -81.04468 -147.58026 -99.61359c-20.753174 -18.568878 15.11853 -7.64859 23.061157 -11.799774c7.9425964 -4.1511536 22.288727 -7.646179 24.594574 -13.107239c2.3058167 -5.461029 -8.7100525 -19.441132 -10.759613 -19.659027z" fill-rule="evenodd"/><path stroke="#000000" stroke-width="1.0" stroke-linejoin="round" stroke-linecap="butt" d="m474.448 315.82022c-2.04953 -0.21792603 9.735901 14.201019 -1.5376892 18.351562c-11.27356 4.1505737 -40.99521 13.979492 -66.10376 6.551819c-25.108582 -7.4276733 -61.744873 -33.64154 -84.54761 -51.11786c-22.802734 -17.476318 -39.714508 -31.457611 -52.2688 -53.74005c-12.554291 -22.282425 -28.181122 -63.57077 -23.056885 -79.95451c5.124222 -16.383759 34.330475 -17.474518 53.802246 -18.347961c19.471771 -0.87345886 52.267365 5.4616394 63.02838 13.107239c10.761017 7.645584 -4.0990906 18.348557 1.5376892 32.76628c5.6368103 14.417725 8.967743 36.04521 32.28305 53.740036c23.315308 17.69484 93.00491 41.50627 107.608734 52.42897c14.603821 10.922699 -20.754608 10.485657 -19.985748 13.107239c0.76882935 2.6215515 17.680634 4.36969 24.598816 2.6221619c6.9181824 -1.7474976 6.661957 -16.165222 16.91037 -13.107239c10.248474 3.0579834 32.79492 21.843597 44.580322 31.4552c11.785461 9.611603 27.669983 30.365051 26.132324 26.214478c-1.5377197 -4.1505737 -22.03534 -39.321716 -35.35846 -51.11786c-13.32312 -11.796173 -26.132996 -11.794952 -44.580322 -19.659058c-18.447357 -7.864105 -49.45041 -18.568878 -66.10379 -27.525558c-16.653381 -8.95668 -39.19699 -15.291779 -33.816498 -26.214478c5.3805237 -10.922699 46.627777 -30.365051 66.09955 -39.321716c19.471771 -8.95668 28.696533 -12.452301 50.73108 -14.418335c22.034607 -1.9660187 57.64862 -4.5869904 81.4765 2.6221771c23.82782 7.2091675 52.52362 25.55954 61.49066 40.632797c8.967041 15.073273 -4.1011963 38.884094 -7.6884155 49.806778c-3.5872803 10.922699 -10.504761 6.335724 -13.835022 15.729431c-3.3302612 9.393707 -6.6590576 29.055145 -6.1464844 40.632782c0.5125122 11.577667 8.197449 30.799683 9.221863 28.833038c1.0244141 -1.9666138 -7.6870117 -27.089142 -3.0753784 -40.632812c4.6116943 -13.54364 12.810547 -46.964874 30.745361 -40.62918c17.934814 6.335724 50.47339 45.001892 76.8634 78.64343c26.389954 33.64157 72.25311 92.622925 81.47644 123.2059c9.223328 30.582947 -11.276428 48.93213 -26.136536 60.29181c-14.860107 11.359741 -24.080566 19.66272 -63.02417 7.866516c-38.943542 -11.796143 -117.60089 -48.9339 -170.63708 -78.6434c-53.036255 -29.709503 -126.82706 -81.04468 -147.58026 -99.61359c-20.753174 -18.568878 15.11853 -7.64859 23.061157 -11.799774c7.9425964 -4.1511536 22.288727 -7.646179 24.594574 -13.107239c2.3058167 -5.461029 -8.7100525 -19.441132 -10.759613 -19.659027z" fill-rule="evenodd"/><path fill="#ffffff" d="m329.9424 376.67783l0 0c0 -69.44003 75.45587 -125.732285 168.53543 -125.732285l0 0c93.07953 0 168.53546 56.29225 168.53546 125.732285l0 0c0 69.44003 -75.45593 125.7323 -168.53546 125.7323l0 0c-93.07956 0 -168.53543 -56.292267 -168.53543 -125.7323z" fill-rule="evenodd"/><path stroke="#000000" stroke-width="1.0" stroke-linejoin="round" stroke-linecap="butt" d="m329.9424 376.67783l0 0c0 -69.44003 75.45587 -125.732285 168.53543 -125.732285l0 0c93.07953 0 168.53546 56.29225 168.53546 125.732285l0 0c0 69.44003 -75.45593 125.7323 -168.53546 125.7323l0 0c-93.07956 0 -168.53543 -56.292267 -168.53543 -125.7323z" fill-rule="evenodd"/><path fill="#000000" d="m420.08655 346.11908l47.578125 0l0 11.625l-30.46875 0l17.765625 21.1875l-19.59375 24.328125l33.75 0l0 11.578125l-49.921875 0l0 -12.84375l18.421875 -23.0625l-17.53125 -20.4375l0 -12.375zm60.75 88.921875l0 -90.09375l10.453125 0l0 90.09375l-10.453125 0z" fill-rule="nonzero"/><path fill="#000000" d="m537.9772 365.05658l-2.0625 9.84375l-9.515625 0l-8.34375 39.9375l-13.453125 0l8.34375 -39.9375l-7.5 0l2.0625 -9.84375l7.5 0l1.078125 -5.109375q1.3125 -6.28125 2.484375 -8.484375q1.59375 -3.0 4.75 -4.75q3.171875 -1.765625 8.28125 -1.765625q6.1875 0 13.03125 2.25l-2.625 9.609375q-4.828125 -1.640625 -7.828125 -1.640625q-2.296875 0 -3.421875 1.453125q-0.75 0.9375 -1.546875 4.921875l-0.75 3.515625l9.515625 0z" fill-rule="nonzero"/><path fill="#000000" fill-opacity="0.0" d="m128.24332 71.14873l119.87402 0l0 139.40158l-119.87402 0z" fill-rule="evenodd"/><path fill="#000000" d="m150.63394 119.24435l-6.1875 6.984375l-8.265625 0l11.515625 -12.75l-6.328125 -12.140625l7.15625 0l3.625 7.09375l6.3125 -7.09375l8.171875 0l-11.546875 12.90625l6.28125 11.984375l-7.15625 0l-3.578125 -6.984375z" fill-rule="nonzero"/><path fill="#000000" d="m166.00113 136.7756q0 -3.453125 1.171875 -7.0q1.4375 -4.328125 3.6875 -6.4375q2.25 -2.109375 5.0 -2.109375q2.78125 0 4.5625 2.015625q1.796875 2.015625 1.796875 5.859375q0 3.515625 -1.3125 7.4375q-1.296875 3.90625 -3.515625 6.0q-2.21875 2.078125 -5.0 2.078125q-2.78125 0 -4.59375 -2.015625q-1.796875 -2.015625 -1.796875 -5.828125zm4.40625 0.90625q0 1.84375 0.59375 2.59375q0.59375 0.75 1.53125 0.75q1.25 0 2.21875 -1.15625q1.296875 -1.546875 2.296875 -6.09375q0.796875 -3.609375 0.796875 -5.71875q0 -1.71875 -0.609375 -2.46875q-0.59375 -0.765625 -1.53125 -0.765625q-1.1875 0 -2.109375 1.140625q-1.359375 1.65625 -2.34375 5.828125q-0.84375 3.609375 -0.84375 5.890625z" fill-rule="nonzero"/><path fill="#000000" fill-opacity="0.0" d="m185.46138 497.57083l119.87401 0l0 139.40158l-119.87401 0z" fill-rule="evenodd"/><path fill="#000000" d="m207.852 545.66644l-6.1875 6.984375l-8.265625 0l11.515625 -12.75l-6.328125 -12.140625l7.15625 0l3.625 7.09375l6.3125 -7.09375l8.171875 0l-11.546875 12.90625l6.28125 11.984375l-7.15625 0l-3.578125 -6.984375z" fill-rule="nonzero"/><path fill="#000000" d="m224.95357 557.49457l0.84375 -4.0q5.796875 -2.53125 8.96875 -5.890625l2.734375 0l-4.828125 23.046875l-4.515625 0l3.328125 -15.875q-1.40625 0.90625 -3.25 1.65625q-1.828125 0.75 -3.28125 1.0625z" fill-rule="nonzero"/></g></svg>