<?xml version="1.0" encoding="UTF-8"?>
<svg width="793.7007874015749" height="1122.5196850393702" xmlns="http://www.w3.org/2000/svg" xmlns:svg="http://www.w3.org/2000/svg">
 <title>ecg blue</title>
 <g>
  <title>Layer 1</title>
  <path d="m186.45346,351.30267l211.51773,-0.75c12.46289,0 19.23566,-20.26638 28.43469,-20.1297c8.8584,0.13163 13.73661,20.93506 25.73758,20.93506l22.42169,0l15.84714,33.01288l17.36435,-119.16876l17.12784,141.22067l15.46521,-55.06479l31.75043,0c14.25457,-10.46756 35.70257,-27.37662 52.65454,-28.18191c17.77661,8.05203 16.67138,17.71435 29.95214,28.18191l13.76783,0l0,-5.63635l-13.76783,0c-13.28076,-10.4675 -8.57922,-17.71439 -29.95214,-28.18185c-21.44782,1.61041 -38.39997,17.71435 -52.65454,28.18185l-34.44782,0.80518l-10.07043,44.98687l-19.82523,-162.54516l-20.06186,141.71398l-9.55304,-24.96087l-26.01828,0c-12.00098,0 -16.87918,-22.41382 -25.73758,-22.54556c-9.19903,-0.13642 -15.97195,21.74029 -28.43469,21.74029l-13.76773,0l-145,3.81815l-52.75,2.56811z" id="path634" stroke-linejoin="round" stroke-linecap="round" stroke-width="0.501308" stroke="#ffffff" fill-rule="evenodd" fill="#ffffff" opacity="0.9"/>
 </g>
</svg>