<svg version="1.1" viewBox="0.0 0.0 666.8083989501313 672.0866141732283" fill="none" stroke="none" stroke-linecap="square" stroke-miterlimit="10" xmlns:xlink="http://www.w3.org/1999/xlink" xmlns="http://www.w3.org/2000/svg"><clipPath id="p.0"><path d="m0 0l666.8084 0l0 672.0866l-666.8084 0l0 -672.0866z" clip-rule="nonzero"/></clipPath><g clip-path="url(#p.0)"><path fill="#000000" fill-opacity="0.0" d="m0 0l666.8084 0l0 672.0866l-666.8084 0z" fill-rule="evenodd"/><path fill="#b7b7b7" d="m0 0l672.0 0l0 672.0l-672.0 0z" fill-rule="evenodd"/><path fill="#ffffff" d="m191.46457 176.99738l0 0c0 -80.40744 64.710724 -145.59055 144.53543 -145.59055l0 0c38.33319 0 75.096344 15.338961 102.201996 42.642487c27.105652 27.303528 42.333435 64.335045 42.333435 102.94807l0 0c0 80.40744 -64.710724 145.59055 -144.53543 145.59055l0 0c-79.82471 0 -144.53543 -65.183105 -144.53543 -145.59055z" fill-rule="evenodd"/><path fill="#ffffff" d="m574.32556 402.53238l0 232.0582c0 -25.632446 -106.701935 -46.411682 -238.32547 -46.411682c-131.6235 0 -238.32545 20.779236 -238.32545 46.411682l0 -232.0582l0 0c0 -25.632446 106.70195 -46.41165 238.32545 -46.41165c131.62354 0 238.32547 20.779205 238.32547 46.41165z" fill-rule="evenodd"/></g></svg>