<?xml version="1.0" standalone="yes"?>
<!DOCTYPE svg PUBLIC "-//W3C//DTD SVG 1.1//EN" 
  "http://www.w3.org/Graphics/SVG/1.1/DTD/svg11.dtd">
<svg width="80%" height="80%"  viewBox="0 0 3500 300"
     xmlns="http://www.w3.org/2000/svg" version="1.1"
     xmlns:xlink="http://www.w3.org/1999/xlink" >
<!-- the xlmns:xlink declaration is needed in order to user xlink:href later -->
     
  <desc>Test waveform animation</desc>

<g id="Test1" transform="scale(.4,-0.1) translate(-500,-2000)" >
    <mask id="Test1mask" maskUnits="userSpaceOnUse"  x="0" y="-1500" width="10000" height="3000" >
      <rect x="0" y="-1500" width="10000" height="3000" fill="#eee"  />
      <animate attributeName="width" attributeType="XML" begin="0s" dur="8s" from="0" to="10000" fill="freeze" />
      <animate attributeName="fill-opacity" begin="5s" dur="3s" from=".9" to=".1" fill="freeze" />
    </mask>

<rect id="Test1rectangle" width="60" height="120" fill="#F00" transform="translate(-30,-60)"  >
    <animate  attributeName="x" attributeType="XML" begin="0s" dur="7.995s" fill="freeze" from="0" to="09990" values="00000;00010;00020;00030;00040;00050;00060;00070;00080;00090;00100;00110;00120;00130;00140;00150;00160;00170;00180;00190;00200;00210;00220;00230;00240;00250;00260;00270;00280;00290;00300;00310;00320;00330;00340;00350;00360;00370;00380;00390;00400;00410;00420;00430;00440;00450;00460;00470;00480;00490;00500;00510;00520;00530;00540;00550;00560;00570;00580;00590;00600;00610;00620;00630;00640;00650;00660;00670;00680;00690;00700;00710;00720;00730;00740;00750;00760;00770;00780;00790;00800;00810;00820;00830;00840;00850;00860;00870;00880;00890;00900;00910;00920;00930;00940;00950;00960;00970;00980;00990;01000;01010;01020;01030;01040;01050;01060;01070;01080;01090;01100;01110;01120;01130;01140;01150;01160;01170;01180;01190;01200;01210;01220;01230;01240;01250;01260;01270;01280;01290;01300;01310;01320;01330;01340;01350;01360;01370;01380;01390;01400;01410;01420;01430;01440;01450;01460;01470;01480;01490;01500;01510;01520;01530;01540;01550;01560;01570;01580;01590;01600;01610;01620;01630;01640;01650;01660;01670;01680;01690;01700;01710;01720;01730;01740;01750;01760;01770;01780;01790;01800;01810;01820;01830;01840;01850;01860;01870;01880;01890;01900;01910;01920;01930;01940;01950;01960;01970;01980;01990;02000;02010;02020;02030;02040;02050;02060;02070;02080;02090;02100;02110;02120;02130;02140;02150;02160;02170;02180;02190;02200;02210;02220;02230;02240;02250;02260;02270;02280;02290;02300;02310;02320;02330;02340;02350;02360;02370;02380;02390;02400;02410;02420;02430;02440;02450;02460;02470;02480;02490;02500;02510;02520;02530;02540;02550;02560;02570;02580;02590;02600;02610;02620;02630;02640;02650;02660;02670;02680;02690;02700;02710;02720;02730;02740;02750;02760;02770;02780;02790;02800;02810;02820;02830;02840;02850;02860;02870;02880;02890;02900;02910;02920;02930;02940;02950;02960;02970;02980;02990;03000;03010;03020;03030;03040;03050;03060;03070;03080;03090;03100;03110;03120;03130;03140;03150;03160;03170;03180;03190;03200;03210;03220;03230;03240;03250;03260;03270;03280;03290;03300;03310;03320;03330;03340;03350;03360;03370;03380;03390;03400;03410;03420;03430;03440;03450;03460;03470;03480;03490;03500;03510;03520;03530;03540;03550;03560;03570;03580;03590;03600;03610;03620;03630;03640;03650;03660;03670;03680;03690;03700;03710;03720;03730;03740;03750;03760;03770;03780;03790;03800;03810;03820;03830;03840;03850;03860;03870;03880;03890;03900;03910;03920;03930;03940;03950;03960;03970;03980;03990;04000;04010;04020;04030;04040;04050;04060;04070;04080;04090;04100;04110;04120;04130;04140;04150;04160;04170;04180;04190;04200;04210;04220;04230;04240;04250;04260;04270;04280;04290;04300;04310;04320;04330;04340;04350;04360;04370;04380;04390;04400;04410;04420;04430;04440;04450;04460;04470;04480;04490;04500;04510;04520;04530;04540;04550;04560;04570;04580;04590;04600;04610;04620;04630;04640;04650;04660;04670;04680;04690;04700;04710;04720;04730;04740;04750;04760;04770;04780;04790;04800;04810;04820;04830;04840;04850;04860;04870;04880;04890;04900;04910;04920;04930;04940;04950;04960;04970;04980;04990;05000;05010;05020;05030;05040;05050;05060;05070;05080;05090;05100;05110;05120;05130;05140;05150;05160;05170;05180;05190;05200;05210;05220;05230;05240;05250;05260;05270;05280;05290;05300;05310;05320;05330;05340;05350;05360;05370;05380;05390;05400;05410;05420;05430;05440;05450;05460;05470;05480;05490;05500;05510;05520;05530;05540;05550;05560;05570;05580;05590;05600;05610;05620;05630;05640;05650;05660;05670;05680;05690;05700;05710;05720;05730;05740;05750;05760;05770;05780;05790;05800;05810;05820;05830;05840;05850;05860;05870;05880;05890;05900;05910;05920;05930;05940;05950;05960;05970;05980;05990;06000;06010;06020;06030;06040;06050;06060;06070;06080;06090;06100;06110;06120;06130;06140;06150;06160;06170;06180;06190;06200;06210;06220;06230;06240;06250;06260;06270;06280;06290;06300;06310;06320;06330;06340;06350;06360;06370;06380;06390;06400;06410;06420;06430;06440;06450;06460;06470;06480;06490;06500;06510;06520;06530;06540;06550;06560;06570;06580;06590;06600;06610;06620;06630;06640;06650;06660;06670;06680;06690;06700;06710;06720;06730;06740;06750;06760;06770;06780;06790;06800;06810;06820;06830;06840;06850;06860;06870;06880;06890;06900;06910;06920;06930;06940;06950;06960;06970;06980;06990;07000;07010;07020;07030;07040;07050;07060;07070;07080;07090;07100;07110;07120;07130;07140;07150;07160;07170;07180;07190;07200;07210;07220;07230;07240;07250;07260;07270;07280;07290;07300;07310;07320;07330;07340;07350;07360;07370;07380;07390;07400;07410;07420;07430;07440;07450;07460;07470;07480;07490;07500;07510;07520;07530;07540;07550;07560;07570;07580;07590;07600;07610;07620;07630;07640;07650;07660;07670;07680;07690;07700;07710;07720;07730;07740;07750;07760;07770;07780;07790;07800;07810;07820;07830;07840;07850;07860;07870;07880;07890;07900;07910;07920;07930;07940;07950;07960;07970;07980;07990;08000;08010;08020;08030;08040;08050;08060;08070;08080;08090;08100;08110;08120;08130;08140;08150;08160;08170;08180;08190;08200;08210;08220;08230;08240;08250;08260;08270;08280;08290;08300;08310;08320;08330;08340;08350;08360;08370;08380;08390;08400;08410;08420;08430;08440;08450;08460;08470;08480;08490;08500;08510;08520;08530;08540;08550;08560;08570;08580;08590;08600;08610;08620;08630;08640;08650;08660;08670;08680;08690;08700;08710;08720;08730;08740;08750;08760;08770;08780;08790;08800;08810;08820;08830;08840;08850;08860;08870;08880;08890;08900;08910;08920;08930;08940;08950;08960;08970;08980;08990;09000;09010;09020;09030;09040;09050;09060;09070;09080;09090;09100;09110;09120;09130;09140;09150;09160;09170;09180;09190;09200;09210;09220;09230;09240;09250;09260;09270;09280;09290;09300;09310;09320;09330;09340;09350;09360;09370;09380;09390;09400;09410;09420;09430;09440;09450;09460;09470;09480;09490;09500;09510;09520;09530;09540;09550;09560;09570;09580;09590;09600;09610;09620;09630;09640;09650;09660;09670;09680;09690;09700;09710;09720;09730;09740;09750;09760;09770;09780;09790;09800;09810;09820;09830;09840;09850;09860;09870;09880;09890;09900;09910;09920;09930;09940;09950;09960;09970;09980;09990" />
    <animate attributeName="y" attributeType="XML" begin="0s" dur="7.995s" fill="freeze" from="-60" to="50" values="-0060;-0065;-0060;-0075;-0065;-0070;-0070;-0090;-0080;-0095;-0080;-0095;-0080;-0095;-0085;-0090;-0090;-0100;-0085;-0105;-0090;-0045;0005;0015;0045;0155;0140;0045;0005;-0040;-0085;-0200;-0195;-0200;-0200;-0240;-0130;0340;1155;1470;-0155;-0825;-0590;-0350;-0155;-0170;-0140;-0155;-0115;-0125;-0090;-0095;-0065;-0055;-0015;-0005;0035;0045;0090;0110;0150;0180;0205;0225;0230;0220;0235;0230;0200;0170;0120;0075;0040;0020;0005;-0005;-0005;-0010;-0015;-0010;0000;-0005;-0020;-0020;-0015;-0025;-0035;-0045;-0045;-0060;-0065;-0070;-0055;-0060;-0080;-0075;-0090;-0065;-0075;-0080;-0080;-0085;-0090;-0075;-0085;-0095;-0105;-0090;-0095;-0070;-0045;0005;0030;0070;0195;0145;0050;-0015;-0025;-0115;-0180;-0190;-0185;-0185;-0215;0010;0575;1185;0960;-0160;-0740;-0640;-0350;-0175;-0145;-0150;-0145;-0105;-0120;-0090;-0085;-0070;-0040;-0020;0005;0020;0045;0080;0115;0140;0165;0210;0190;0220;0210;0215;0215;0160;0135;0100;0050;0035;-0005;0005;-0005;-0015;-0020;-0010;0000;-0020;-0005;-0040;-0035;-0050;-0040;-0055;-0075;-0050;-0075;-0090;-0080;-0090;-0080;-0075;-0085;-0085;-0095;-0095;-0105;-0080;-0115;-0100;-0095;-0100;-0075;-0005;0010;0055;0185;0145;0075;-0005;-0025;-0110;-0175;-0180;-0220;-0175;-0240;-0030;0530;1210;1220;-0105;-0795;-0690;-0375;-0165;-0155;-0135;-0150;-0120;-0120;-0090;-0095;-0050;-0050;-0010;-0005;0030;0080;0075;0145;0155;0200;0200;0240;0235;0245;0245;0215;0180;0150;0090;0035;0025;0000;-0015;-0030;0000;-0020;-0005;-0025;-0030;-0015;-0010;-0035;-0040;-0050;-0045;-0040;-0075;-0065;-0095;-0085;-0085;-0090;-0100;-0100;-0080;-0105;-0105;-0100;-0105;-0095;-0100;-0090;-0035;0010;0035;0070;0190;0125;0045;-0035;-0060;-0155;-0210;-0225;-0200;-0215;-0265;0070;0865;1495;0625;-0440;-0815;-0600;-0310;-0175;-0180;-0165;-0135;-0135;-0115;-0105;-0085;-0060;-0030;-0020;0015;0050;0070;0105;0165;0200;0205;0235;0235;0265;0260;0235;0215;0170;0125;0090;0025;-0015;-0030;-0035;-0040;-0040;-0035;-0040;-0020;-0040;-0040;-0030;-0045;-0065;-0060;-0060;-0090;-0080;-0095;-0085;-0105;-0090;-0100;-0105;-0115;-0100;-0115;-0110;-0135;-0095;-0125;-0105;-0085;-0015;0020;0030;0135;0160;0105;0030;-0050;-0050;-0170;-0205;-0215;-0175;-0210;-0215;0175;1090;1700;0335;-0615;-0705;-0460;-0175;-0165;-0145;-0155;-0115;-0120;-0105;-0105;-0085;-0060;-0015;-0005;0020;0050;0080;0105;0180;0205;0240;0235;0270;0270;0280;0260;0230;0175;0135;0090;0045;0000;-0005;-0025;-0025;-0025;-0020;0000;-0005;-0005;-0005;-0005;-0010;-0025;-0020;-0040;-0040;-0040;-0050;-0060;-0050;-0065;-0060;-0070;-0060;-0090;-0080;-0095;-0085;-0100;-0090;-0095;-0085;-0100;-0075;-0095;-0080;-0075;0000;0030;0035;0135;0145;0070;0015;-0045;-0055;-0185;-0190;-0220;-0180;-0210;-0185;0220;1150;1720;0155;-0700;-0660;-0405;-0150;-0160;-0135;-0145;-0120;-0125;-0090;-0090;-0055;-0040;-0015;0000;0030;0050;0095;0110;0165;0190;0230;0245;0255;0255;0265;0255;0230;0185;0145;0100;0060;0025;0025;0010;0010;0010;0015;0010;0025;0020;0020;0020;0015;0000;0000;-0010;-0015;-0020;-0030;-0035;-0035;-0045;-0040;-0045;-0045;-0055;-0045;-0055;-0045;-0060;-0050;-0060;-0055;-0080;-0065;-0090;-0075;-0090;-0070;-0075;-0065;-0080;-0065;-0030;0025;0040;0065;0180;0145;0055;0015;-0035;-0060;-0175;-0170;-0195;-0175;-0220;-0115;0355;1240;1595;-0115;-0815;-0565;-0300;-0130;-0160;-0130;-0135;-0110;-0120;-0090;-0085;-0055;-0040;-0005;0000;0040;0050;0095;0125;0170;0190;0220;0230;0245;0250;0260;0240;0220;0175;0135;0085;0055;0020;0015;0010;0010;0000;0000;0000;0010;0005;0020;0010;0000;-0010;-0015;-0020;-0020;-0025;-0035;-0030;-0045;-0050;-0050;-0055;-0065;-0065;-0060;-0065;-0070;-0060;-0060;-0055;-0060;-0065;-0080;-0065;-0080;-0065;-0075;-0070;-0085;-0070;-0085;-0075;-0085;-0060;-0045;0020;0040;0055;0180;0155;0060;0020;-0025;-0055;-0180;-0160;-0170;-0165;-0195;-0100;0350;1115;1495;-0040;-0730;-0620;-0365;-0130;-0150;-0135;-0150;-0120;-0130;-0105;-0090;-0055;-0060;-0035;-0015;0020;0045;0065;0095;0145;0180;0215;0200;0225;0235;0245;0235;0225;0175;0130;0090;0050;0035;0015;0005;0000;-0005;0000;0000;0000;0000;-0005;-0005;-0020;-0020;-0040;-0050;-0060;-0060;-0060;-0070;-0065;-0075;-0070;-0065;-0075;-0075;-0075;-0090;-0075;-0085;-0080;-0090;-0075;-0090;-0080;-0090;-0080;-0100;-0085;-0100;-0075;-0085;-0090;-0075;-0015;0025;0055;0155;0160;0095;0015;-0035;-0050;-0175;-0170;-0190;-0175;-0200;-0105;0335;1095;1470;0065;-0660;-0690;-0440;-0185;-0160;-0135;-0135;-0115;-0115;-0110;-0095;-0055;-0050;-0015;-0005;0045;0050;0095;0120;0165;0185;0210;0225;0245;0240;0240;0235;0210;0165;0125;0070;0045;0010;0020;0005;0000;0000;0000;0000;0000;-0005;-0010;-0005;-0025;-0005;-0040;-0040;-0045;-0045;-0040;-0055;-0065;-0050;-0065;-0065;-0065;-0065;-0070;-0065;-0070;-0065;-0070;-0070;-0085;-0060;-0090;-0065;-0085;-0080;-0085;-0050;-0090;-0075;-0055;0005;0055;0060;0160;0155;0080;0015;-0020;-0045;-0170;-0170;-0175;-0160;-0200;-0105;0360;1160;1550;0070;-0690;-0660;-0410;-0155;-0155;-0135;-0135;-0105;-0110;-0085;-0090;-0065;-0045;-0005;0000;0040;0065;0100;0120;0175;0190;0230;0255;0270;0265;0275;0245;0215;0175;0140;0095;0040;0025;0015;0000;0000;0000;0000;0000;0000;0000;0000;-0005;-0010;-0010;-0015;-0030;-0035;-0045;-0045;-0050;-0045;-0065;-0070;-0075;-0070;-0090;-0085;-0090;-0070;-0085;-0085;-0095;-0085;-0090;-0085;-0090;-0090;-0100;-0090;-0105;-0090;-0100;-0085;-0055;0000;0035;0050;0170;0135;0060;0010;-0035;-0075;-0190;-0185;-0205;-0180;-0225;-0110;0380;1215;1545;-0025;-0765;-0620;-0370;-0155;-0170;-0145;-0160;-0130;-0145;-0125;-0120;-0080;-0065;-0035;-0020;0010;0035;0080;0105;0155;0180;0220;0225;0240;0235;0245;0225;0200;0155;0115;0075;0050;0020;0000;-0010;-0015;-0010;-0010;-0005;0000;0000;0000;0000;0000;-0005;-0010;-0020;-0025;-0035;-0045;-0055;-0055;-0060;-0060;-0060;-0055;-0055;-0055;-0065;-0060;-0055"  />
</rect>
  <path id="Test1path"  fill="none" stroke="black" stroke-width="1" vector-effect="non-scaling-stroke" mask="url(#Test1mask)"
d="M 00000 -0060 L 00010 -0065 L 00020 -0060 L 00030 -0075 L 00040 -0065 L 00050 -0070 L 00060 -0070 L 00070 -0090 L 00080 -0080 L 00090 -0095 L 00100 -0080 L 00110 -0095 L 00120 -0080 L 00130 -0095 L 00140 -0085 L 00150 -0090 L 00160 -0090 L 00170 -0100 L 00180 -0085 L 00190 -0105 L 00200 -0090 L 00210 -0045 L 00220 0005 L 00230 0015 L 00240 0045 L 00250 0155 L 00260 0140 L 00270 0045 L 00280 0005 L 00290 -0040 L 00300 -0085 L 00310 -0200 L 00320 -0195 L 00330 -0200 L 00340 -0200 L 00350 -0240 L 00360 -0130 L 00370 0340 L 00380 1155 L 00390 1470 L 00400 -0155 L 00410 -0825 L 00420 -0590 L 00430 -0350 L 00440 -0155 L 00450 -0170 L 00460 -0140 L 00470 -0155 L 00480 -0115 L 00490 -0125 L 00500 -0090 L 00510 -0095 L 00520 -0065 L 00530 -0055 L 00540 -0015 L 00550 -0005 L 00560 0035 L 00570 0045 L 00580 0090 L 00590 0110 L 00600 0150 L 00610 0180 L 00620 0205 L 00630 0225 L 00640 0230 L 00650 0220 L 00660 0235 L 00670 0230 L 00680 0200 L 00690 0170 L 00700 0120 L 00710 0075 L 00720 0040 L 00730 0020 L 00740 0005 L 00750 -0005 L 00760 -0005 L 00770 -0010 L 00780 -0015 L 00790 -0010 L 00800 0000 L 00810 -0005 L 00820 -0020 L 00830 -0020 L 00840 -0015 L 00850 -0025 L 00860 -0035 L 00870 -0045 L 00880 -0045 L 00890 -0060 L 00900 -0065 L 00910 -0070 L 00920 -0055 L 00930 -0060 L 00940 -0080 L 00950 -0075 L 00960 -0090 L 00970 -0065 L 00980 -0075 L 00990 -0080 L 01000 -0080 L 01010 -0085 L 01020 -0090 L 01030 -0075 L 01040 -0085 L 01050 -0095 L 01060 -0105 L 01070 -0090 L 01080 -0095 L 01090 -0070 L 01100 -0045 L 01110 0005 L 01120 0030 L 01130 0070 L 01140 0195 L 01150 0145 L 01160 0050 L 01170 -0015 L 01180 -0025 L 01190 -0115 L 01200 -0180 L 01210 -0190 L 01220 -0185 L 01230 -0185 L 01240 -0215 L 01250 0010 L 01260 0575 L 01270 1185 L 01280 0960 L 01290 -0160 L 01300 -0740 L 01310 -0640 L 01320 -0350 L 01330 -0175 L 01340 -0145 L 01350 -0150 L 01360 -0145 L 01370 -0105 L 01380 -0120 L 01390 -0090 L 01400 -0085 L 01410 -0070 L 01420 -0040 L 01430 -0020 L 01440 0005 L 01450 0020 L 01460 0045 L 01470 0080 L 01480 0115 L 01490 0140 L 01500 0165 L 01510 0210 L 01520 0190 L 01530 0220 L 01540 0210 L 01550 0215 L 01560 0215 L 01570 0160 L 01580 0135 L 01590 0100 L 01600 0050 L 01610 0035 L 01620 -0005 L 01630 0005 L 01640 -0005 L 01650 -0015 L 01660 -0020 L 01670 -0010 L 01680 0000 L 01690 -0020 L 01700 -0005 L 01710 -0040 L 01720 -0035 L 01730 -0050 L 01740 -0040 L 01750 -0055 L 01760 -0075 L 01770 -0050 L 01780 -0075 L 01790 -0090 L 01800 -0080 L 01810 -0090 L 01820 -0080 L 01830 -0075 L 01840 -0085 L 01850 -0085 L 01860 -0095 L 01870 -0095 L 01880 -0105 L 01890 -0080 L 01900 -0115 L 01910 -0100 L 01920 -0095 L 01930 -0100 L 01940 -0075 L 01950 -0005 L 01960 0010 L 01970 0055 L 01980 0185 L 01990 0145 L 02000 0075 L 02010 -0005 L 02020 -0025 L 02030 -0110 L 02040 -0175 L 02050 -0180 L 02060 -0220 L 02070 -0175 L 02080 -0240 L 02090 -0030 L 02100 0530 L 02110 1210 L 02120 1220 L 02130 -0105 L 02140 -0795 L 02150 -0690 L 02160 -0375 L 02170 -0165 L 02180 -0155 L 02190 -0135 L 02200 -0150 L 02210 -0120 L 02220 -0120 L 02230 -0090 L 02240 -0095 L 02250 -0050 L 02260 -0050 L 02270 -0010 L 02280 -0005 L 02290 0030 L 02300 0080 L 02310 0075 L 02320 0145 L 02330 0155 L 02340 0200 L 02350 0200 L 02360 0240 L 02370 0235 L 02380 0245 L 02390 0245 L 02400 0215 L 02410 0180 L 02420 0150 L 02430 0090 L 02440 0035 L 02450 0025 L 02460 0000 L 02470 -0015 L 02480 -0030 L 02490 0000 L 02500 -0020 L 02510 -0005 L 02520 -0025 L 02530 -0030 L 02540 -0015 L 02550 -0010 L 02560 -0035 L 02570 -0040 L 02580 -0050 L 02590 -0045 L 02600 -0040 L 02610 -0075 L 02620 -0065 L 02630 -0095 L 02640 -0085 L 02650 -0085 L 02660 -0090 L 02670 -0100 L 02680 -0100 L 02690 -0080 L 02700 -0105 L 02710 -0105 L 02720 -0100 L 02730 -0105 L 02740 -0095 L 02750 -0100 L 02760 -0090 L 02770 -0035 L 02780 0010 L 02790 0035 L 02800 0070 L 02810 0190 L 02820 0125 L 02830 0045 L 02840 -0035 L 02850 -0060 L 02860 -0155 L 02870 -0210 L 02880 -0225 L 02890 -0200 L 02900 -0215 L 02910 -0265 L 02920 0070 L 02930 0865 L 02940 1495 L 02950 0625 L 02960 -0440 L 02970 -0815 L 02980 -0600 L 02990 -0310 L 03000 -0175 L 03010 -0180 L 03020 -0165 L 03030 -0135 L 03040 -0135 L 03050 -0115 L 03060 -0105 L 03070 -0085 L 03080 -0060 L 03090 -0030 L 03100 -0020 L 03110 0015 L 03120 0050 L 03130 0070 L 03140 0105 L 03150 0165 L 03160 0200 L 03170 0205 L 03180 0235 L 03190 0235 L 03200 0265 L 03210 0260 L 03220 0235 L 03230 0215 L 03240 0170 L 03250 0125 L 03260 0090 L 03270 0025 L 03280 -0015 L 03290 -0030 L 03300 -0035 L 03310 -0040 L 03320 -0040 L 03330 -0035 L 03340 -0040 L 03350 -0020 L 03360 -0040 L 03370 -0040 L 03380 -0030 L 03390 -0045 L 03400 -0065 L 03410 -0060 L 03420 -0060 L 03430 -0090 L 03440 -0080 L 03450 -0095 L 03460 -0085 L 03470 -0105 L 03480 -0090 L 03490 -0100 L 03500 -0105 L 03510 -0115 L 03520 -0100 L 03530 -0115 L 03540 -0110 L 03550 -0135 L 03560 -0095 L 03570 -0125 L 03580 -0105 L 03590 -0085 L 03600 -0015 L 03610 0020 L 03620 0030 L 03630 0135 L 03640 0160 L 03650 0105 L 03660 0030 L 03670 -0050 L 03680 -0050 L 03690 -0170 L 03700 -0205 L 03710 -0215 L 03720 -0175 L 03730 -0210 L 03740 -0215 L 03750 0175 L 03760 1090 L 03770 1700 L 03780 0335 L 03790 -0615 L 03800 -0705 L 03810 -0460 L 03820 -0175 L 03830 -0165 L 03840 -0145 L 03850 -0155 L 03860 -0115 L 03870 -0120 L 03880 -0105 L 03890 -0105 L 03900 -0085 L 03910 -0060 L 03920 -0015 L 03930 -0005 L 03940 0020 L 03950 0050 L 03960 0080 L 03970 0105 L 03980 0180 L 03990 0205 L 04000 0240 L 04010 0235 L 04020 0270 L 04030 0270 L 04040 0280 L 04050 0260 L 04060 0230 L 04070 0175 L 04080 0135 L 04090 0090 L 04100 0045 L 04110 0000 L 04120 -0005 L 04130 -0025 L 04140 -0025 L 04150 -0025 L 04160 -0020 L 04170 0000 L 04180 -0005 L 04190 -0005 L 04200 -0005 L 04210 -0005 L 04220 -0010 L 04230 -0025 L 04240 -0020 L 04250 -0040 L 04260 -0040 L 04270 -0040 L 04280 -0050 L 04290 -0060 L 04300 -0050 L 04310 -0065 L 04320 -0060 L 04330 -0070 L 04340 -0060 L 04350 -0090 L 04360 -0080 L 04370 -0095 L 04380 -0085 L 04390 -0100 L 04400 -0090 L 04410 -0095 L 04420 -0085 L 04430 -0100 L 04440 -0075 L 04450 -0095 L 04460 -0080 L 04470 -0075 L 04480 0000 L 04490 0030 L 04500 0035 L 04510 0135 L 04520 0145 L 04530 0070 L 04540 0015 L 04550 -0045 L 04560 -0055 L 04570 -0185 L 04580 -0190 L 04590 -0220 L 04600 -0180 L 04610 -0210 L 04620 -0185 L 04630 0220 L 04640 1150 L 04650 1720 L 04660 0155 L 04670 -0700 L 04680 -0660 L 04690 -0405 L 04700 -0150 L 04710 -0160 L 04720 -0135 L 04730 -0145 L 04740 -0120 L 04750 -0125 L 04760 -0090 L 04770 -0090 L 04780 -0055 L 04790 -0040 L 04800 -0015 L 04810 0000 L 04820 0030 L 04830 0050 L 04840 0095 L 04850 0110 L 04860 0165 L 04870 0190 L 04880 0230 L 04890 0245 L 04900 0255 L 04910 0255 L 04920 0265 L 04930 0255 L 04940 0230 L 04950 0185 L 04960 0145 L 04970 0100 L 04980 0060 L 04990 0025 L 05000 0025 L 05010 0010 L 05020 0010 L 05030 0010 L 05040 0015 L 05050 0010 L 05060 0025 L 05070 0020 L 05080 0020 L 05090 0020 L 05100 0015 L 05110 0000 L 05120 0000 L 05130 -0010 L 05140 -0015 L 05150 -0020 L 05160 -0030 L 05170 -0035 L 05180 -0035 L 05190 -0045 L 05200 -0040 L 05210 -0045 L 05220 -0045 L 05230 -0055 L 05240 -0045 L 05250 -0055 L 05260 -0045 L 05270 -0060 L 05280 -0050 L 05290 -0060 L 05300 -0055 L 05310 -0080 L 05320 -0065 L 05330 -0090 L 05340 -0075 L 05350 -0090 L 05360 -0070 L 05370 -0075 L 05380 -0065 L 05390 -0080 L 05400 -0065 L 05410 -0030 L 05420 0025 L 05430 0040 L 05440 0065 L 05450 0180 L 05460 0145 L 05470 0055 L 05480 0015 L 05490 -0035 L 05500 -0060 L 05510 -0175 L 05520 -0170 L 05530 -0195 L 05540 -0175 L 05550 -0220 L 05560 -0115 L 05570 0355 L 05580 1240 L 05590 1595 L 05600 -0115 L 05610 -0815 L 05620 -0565 L 05630 -0300 L 05640 -0130 L 05650 -0160 L 05660 -0130 L 05670 -0135 L 05680 -0110 L 05690 -0120 L 05700 -0090 L 05710 -0085 L 05720 -0055 L 05730 -0040 L 05740 -0005 L 05750 0000 L 05760 0040 L 05770 0050 L 05780 0095 L 05790 0125 L 05800 0170 L 05810 0190 L 05820 0220 L 05830 0230 L 05840 0245 L 05850 0250 L 05860 0260 L 05870 0240 L 05880 0220 L 05890 0175 L 05900 0135 L 05910 0085 L 05920 0055 L 05930 0020 L 05940 0015 L 05950 0010 L 05960 0010 L 05970 0000 L 05980 0000 L 05990 0000 L 06000 0010 L 06010 0005 L 06020 0020 L 06030 0010 L 06040 0000 L 06050 -0010 L 06060 -0015 L 06070 -0020 L 06080 -0020 L 06090 -0025 L 06100 -0035 L 06110 -0030 L 06120 -0045 L 06130 -0050 L 06140 -0050 L 06150 -0055 L 06160 -0065 L 06170 -0065 L 06180 -0060 L 06190 -0065 L 06200 -0070 L 06210 -0060 L 06220 -0060 L 06230 -0055 L 06240 -0060 L 06250 -0065 L 06260 -0080 L 06270 -0065 L 06280 -0080 L 06290 -0065 L 06300 -0075 L 06310 -0070 L 06320 -0085 L 06330 -0070 L 06340 -0085 L 06350 -0075 L 06360 -0085 L 06370 -0060 L 06380 -0045 L 06390 0020 L 06400 0040 L 06410 0055 L 06420 0180 L 06430 0155 L 06440 0060 L 06450 0020 L 06460 -0025 L 06470 -0055 L 06480 -0180 L 06490 -0160 L 06500 -0170 L 06510 -0165 L 06520 -0195 L 06530 -0100 L 06540 0350 L 06550 1115 L 06560 1495 L 06570 -0040 L 06580 -0730 L 06590 -0620 L 06600 -0365 L 06610 -0130 L 06620 -0150 L 06630 -0135 L 06640 -0150 L 06650 -0120 L 06660 -0130 L 06670 -0105 L 06680 -0090 L 06690 -0055 L 06700 -0060 L 06710 -0035 L 06720 -0015 L 06730 0020 L 06740 0045 L 06750 0065 L 06760 0095 L 06770 0145 L 06780 0180 L 06790 0215 L 06800 0200 L 06810 0225 L 06820 0235 L 06830 0245 L 06840 0235 L 06850 0225 L 06860 0175 L 06870 0130 L 06880 0090 L 06890 0050 L 06900 0035 L 06910 0015 L 06920 0005 L 06930 0000 L 06940 -0005 L 06950 0000 L 06960 0000 L 06970 0000 L 06980 0000 L 06990 -0005 L 07000 -0005 L 07010 -0020 L 07020 -0020 L 07030 -0040 L 07040 -0050 L 07050 -0060 L 07060 -0060 L 07070 -0060 L 07080 -0070 L 07090 -0065 L 07100 -0075 L 07110 -0070 L 07120 -0065 L 07130 -0075 L 07140 -0075 L 07150 -0075 L 07160 -0090 L 07170 -0075 L 07180 -0085 L 07190 -0080 L 07200 -0090 L 07210 -0075 L 07220 -0090 L 07230 -0080 L 07240 -0090 L 07250 -0080 L 07260 -0100 L 07270 -0085 L 07280 -0100 L 07290 -0075 L 07300 -0085 L 07310 -0090 L 07320 -0075 L 07330 -0015 L 07340 0025 L 07350 0055 L 07360 0155 L 07370 0160 L 07380 0095 L 07390 0015 L 07400 -0035 L 07410 -0050 L 07420 -0175 L 07430 -0170 L 07440 -0190 L 07450 -0175 L 07460 -0200 L 07470 -0105 L 07480 0335 L 07490 1095 L 07500 1470 L 07510 0065 L 07520 -0660 L 07530 -0690 L 07540 -0440 L 07550 -0185 L 07560 -0160 L 07570 -0135 L 07580 -0135 L 07590 -0115 L 07600 -0115 L 07610 -0110 L 07620 -0095 L 07630 -0055 L 07640 -0050 L 07650 -0015 L 07660 -0005 L 07670 0045 L 07680 0050 L 07690 0095 L 07700 0120 L 07710 0165 L 07720 0185 L 07730 0210 L 07740 0225 L 07750 0245 L 07760 0240 L 07770 0240 L 07780 0235 L 07790 0210 L 07800 0165 L 07810 0125 L 07820 0070 L 07830 0045 L 07840 0010 L 07850 0020 L 07860 0005 L 07870 0000 L 07880 0000 L 07890 0000 L 07900 0000 L 07910 0000 L 07920 -0005 L 07930 -0010 L 07940 -0005 L 07950 -0025 L 07960 -0005 L 07970 -0040 L 07980 -0040 L 07990 -0045 L 08000 -0045 L 08010 -0040 L 08020 -0055 L 08030 -0065 L 08040 -0050 L 08050 -0065 L 08060 -0065 L 08070 -0065 L 08080 -0065 L 08090 -0070 L 08100 -0065 L 08110 -0070 L 08120 -0065 L 08130 -0070 L 08140 -0070 L 08150 -0085 L 08160 -0060 L 08170 -0090 L 08180 -0065 L 08190 -0085 L 08200 -0080 L 08210 -0085 L 08220 -0050 L 08230 -0090 L 08240 -0075 L 08250 -0055 L 08260 0005 L 08270 0055 L 08280 0060 L 08290 0160 L 08300 0155 L 08310 0080 L 08320 0015 L 08330 -0020 L 08340 -0045 L 08350 -0170 L 08360 -0170 L 08370 -0175 L 08380 -0160 L 08390 -0200 L 08400 -0105 L 08410 0360 L 08420 1160 L 08430 1550 L 08440 0070 L 08450 -0690 L 08460 -0660 L 08470 -0410 L 08480 -0155 L 08490 -0155 L 08500 -0135 L 08510 -0135 L 08520 -0105 L 08530 -0110 L 08540 -0085 L 08550 -0090 L 08560 -0065 L 08570 -0045 L 08580 -0005 L 08590 0000 L 08600 0040 L 08610 0065 L 08620 0100 L 08630 0120 L 08640 0175 L 08650 0190 L 08660 0230 L 08670 0255 L 08680 0270 L 08690 0265 L 08700 0275 L 08710 0245 L 08720 0215 L 08730 0175 L 08740 0140 L 08750 0095 L 08760 0040 L 08770 0025 L 08780 0015 L 08790 0000 L 08800 0000 L 08810 0000 L 08820 0000 L 08830 0000 L 08840 0000 L 08850 0000 L 08860 0000 L 08870 -0005 L 08880 -0010 L 08890 -0010 L 08900 -0015 L 08910 -0030 L 08920 -0035 L 08930 -0045 L 08940 -0045 L 08950 -0050 L 08960 -0045 L 08970 -0065 L 08980 -0070 L 08990 -0075 L 09000 -0070 L 09010 -0090 L 09020 -0085 L 09030 -0090 L 09040 -0070 L 09050 -0085 L 09060 -0085 L 09070 -0095 L 09080 -0085 L 09090 -0090 L 09100 -0085 L 09110 -0090 L 09120 -0090 L 09130 -0100 L 09140 -0090 L 09150 -0105 L 09160 -0090 L 09170 -0100 L 09180 -0085 L 09190 -0055 L 09200 0000 L 09210 0035 L 09220 0050 L 09230 0170 L 09240 0135 L 09250 0060 L 09260 0010 L 09270 -0035 L 09280 -0075 L 09290 -0190 L 09300 -0185 L 09310 -0205 L 09320 -0180 L 09330 -0225 L 09340 -0110 L 09350 0380 L 09360 1215 L 09370 1545 L 09380 -0025 L 09390 -0765 L 09400 -0620 L 09410 -0370 L 09420 -0155 L 09430 -0170 L 09440 -0145 L 09450 -0160 L 09460 -0130 L 09470 -0145 L 09480 -0125 L 09490 -0120 L 09500 -0080 L 09510 -0065 L 09520 -0035 L 09530 -0020 L 09540 0010 L 09550 0035 L 09560 0080 L 09570 0105 L 09580 0155 L 09590 0180 L 09600 0220 L 09610 0225 L 09620 0240 L 09630 0235 L 09640 0245 L 09650 0225 L 09660 0200 L 09670 0155 L 09680 0115 L 09690 0075 L 09700 0050 L 09710 0020 L 09720 0000 L 09730 -0010 L 09740 -0015 L 09750 -0010 L 09760 -0010 L 09770 -0005 L 09780 0000 L 09790 0000 L 09800 0000 L 09810 0000 L 09820 0000 L 09830 -0005 L 09840 -0010 L 09850 -0020 L 09860 -0025 L 09870 -0035 L 09880 -0045 L 09890 -0055 L 09900 -0055 L 09910 -0060 L 09920 -0060 L 09930 -0060 L 09940 -0055 L 09950 -0055 L 09960 -0055 L 09970 -0065 L 09980 -0060 L 09990 -0055" />
</g>

</svg>

